<svg width="154" height="145" viewBox="0 0 154 145" fill="none" xmlns="http://www.w3.org/2000/svg">
<line x1="74.5303" y1="66.4697" x2="101.634" y2="93.5731" stroke="#FF2929" stroke-width="1.5"/>
<path d="M52 93C65.527 110.377 94.585 101.937 102.1 93" stroke="#FF2929" stroke-width="1.5"/>
<line x1="100.9" y1="40.75" x2="94" y2="40.75" stroke="black" stroke-width="1.5"/>
<line x1="91" y1="40.75" x2="83" y2="40.75" stroke="black" stroke-width="1.5"/>
<line x1="80" y1="40.75" x2="72" y2="40.75" stroke="black" stroke-width="1.5"/>
<line x1="56.4106" y1="48.7263" x2="48.2153" y2="40.531" stroke="black" stroke-width="1.5"/>
<line x1="72.4697" y1="64.5303" x2="65.4697" y2="57.5303" stroke="#020202" stroke-width="1.5"/>
<line x1="64.4697" y1="56.5303" x2="57.4697" y2="49.5303" stroke="black" stroke-width="1.5"/>
<line x1="69" y1="40.75" x2="61" y2="40.75" stroke="black" stroke-width="1.5"/>
<line x1="58" y1="40.75" x2="48.745" y2="40.75" stroke="black" stroke-width="1.5"/>
<line x1="73.4897" y1="66.4504" x2="101.387" y2="40.5456" stroke="#FF2929" stroke-width="1.5"/>
<path d="M59.656 113.596C59.816 113.708 59.964 113.808 60.1 113.896C60.244 113.976 60.368 114.064 60.472 114.16C60.68 114.352 60.784 114.588 60.784 114.868V116.908C60.784 117.268 60.656 117.544 60.4 117.736C60.184 117.912 59.9 118 59.548 118H55.72V115.78H56.584V117.184H59.824V114.844L56.68 112.912C56.4 112.752 56.168 112.588 55.984 112.42C55.808 112.244 55.72 112.008 55.72 111.712V110.2C55.72 109.728 55.832 109.404 56.056 109.228C56.248 109.076 56.58 109 57.052 109H60.676V111.22H59.812V109.816H56.68V111.736L59.656 113.596ZM66.9399 117.184V118H62.7639C62.3559 118 62.0799 117.92 61.9359 117.76C61.8079 117.616 61.7439 117.344 61.7439 116.944V116.5C61.7439 116.212 61.7799 116.016 61.8519 115.912C61.9559 115.76 62.1919 115.572 62.5599 115.348L65.1999 113.704V112.816H62.8479V113.512H62.0799V112H65.0799C65.4879 112 65.7719 112.088 65.9319 112.264C66.0999 112.44 66.1839 112.696 66.1839 113.032V117.184H66.9399ZM65.1999 114.664L62.7039 116.224V117.184H65.1999V114.664ZM69.6059 118.024C68.9819 118.024 68.6699 117.716 68.6699 117.1V112.804H67.9019V111.988H69.6419V117.184L72.0299 115.684V112.804H71.4419V111.988H73.0019V117.184H73.7579V118H72.0299V116.656L70.0379 117.904C69.9099 117.984 69.7659 118.024 69.6059 118.024ZM80.0862 117.172V118H78.3462V116.62L76.2702 117.928C76.0222 118.056 75.7862 118.12 75.5622 118.12C75.3462 118.12 75.1702 118.04 75.0342 117.88C74.9062 117.72 74.8422 117.536 74.8422 117.328V113.128C74.8422 112.76 74.8982 112.508 75.0102 112.372C75.2022 112.124 75.5062 112 75.9222 112H78.3462V109.816H77.5542V109H79.3302V117.172H80.0862ZM78.3462 112.816H75.8022V117.244L78.3462 115.66V112.816ZM86.0063 117.184V118H81.8303C81.4223 118 81.1463 117.92 81.0023 117.76C80.8743 117.616 80.8103 117.344 80.8103 116.944V116.5C80.8103 116.212 80.8463 116.016 80.9183 115.912C81.0223 115.76 81.2583 115.572 81.6263 115.348L84.2663 113.704V112.816H81.9143V113.512H81.1463V112H84.1463C84.5543 112 84.8383 112.088 84.9983 112.264C85.1663 112.44 85.2503 112.696 85.2503 113.032V117.184H86.0063ZM84.2663 114.664L81.7703 116.224V117.184H84.2663V114.664ZM92.3323 117.172V118H90.5923V116.62L88.5163 117.928C88.2683 118.056 88.0323 118.12 87.8083 118.12C87.5923 118.12 87.4163 118.04 87.2803 117.88C87.1523 117.72 87.0883 117.536 87.0883 117.328V113.128C87.0883 112.76 87.1443 112.508 87.2563 112.372C87.4483 112.124 87.7523 112 88.1683 112H90.5923V109.816H89.8003V109H91.5763V117.172H92.3323ZM90.5923 112.816H88.0483V117.244L90.5923 115.66V112.816ZM93.4164 113.176C93.4164 112.384 93.8284 111.988 94.6524 111.988H96.6804C97.0724 111.988 97.3564 112.064 97.5324 112.216C97.7084 112.368 97.7964 112.648 97.7964 113.056V114.172L94.3764 116.332V117.184H96.8484V116.488H97.7964V117.124C97.7964 117.364 97.7204 117.572 97.5684 117.748C97.4244 117.916 97.1804 118 96.8364 118H94.3764C94.0324 118 93.7844 117.916 93.6324 117.748C93.4884 117.572 93.4164 117.364 93.4164 117.124V113.176ZM94.3764 115.36L96.8364 113.812V112.816H94.3764V115.36Z" fill="black"/>
</svg>
